<svg xmlns="http://www.w3.org/2000/svg" viewBox="0 0 64 64" width="64" height="64">
  <defs>
    <linearGradient id="g-commentator-diamond" x1="0" y1="0" x2="1" y2="1">
      <stop offset="0" stop-color="#E3F8FF"/>
      <stop offset="1" stop-color="#29B6F6"/>
    </linearGradient>
  </defs>
  <circle cx="32" cy="32" r="31.5" fill="none" stroke="#E3F8FF" stroke-width="1.5" opacity="0.7"/>
  <circle cx="32" cy="32" r="30" fill="url(#g-commentator-diamond)" stroke="#01579B" stroke-width="2"/>
  <ellipse cx="32" cy="14" rx="20" ry="8" fill="#fff" opacity="0.18"/>
  <rect x="18" y="20" width="28" height="20" rx="6" fill="#fff"/>
  <path d="M24,40 L24,47 L31,40 Z" fill="#fff"/>
  <circle cx="26" cy="30" r="2" fill="#29B6F6"/>
  <circle cx="32" cy="30" r="2" fill="#29B6F6"/>
  <circle cx="38" cy="30" r="2" fill="#29B6F6"/>
  <path d="M0,-6.5 L1.7,-1.7 L6.5,0 L1.7,1.7 L0,6.5 L-1.7,1.7 L-6.5,0 L-1.7,-1.7 Z" fill="#fff" transform="translate(48,17)"/>
  <path d="M0,-4.5 L1.2,-1.2 L4.5,0 L1.2,1.2 L0,4.5 L-1.2,1.2 L-4.5,0 L-1.2,-1.2 Z" fill="#fff" transform="translate(15,47)"/>
</svg>
